<svg width="1200" height="780" viewBox="0 0 1200 780" fill="none" xmlns="http://www.w3.org/2000/svg">
  <rect width="1200" height="780" fill="#F4E3D6"/>
  <rect x="90" y="90" width="1020" height="600" rx="38" fill="#FFF8F3"/>
  <path d="M420 320H760V420C760 503 693 570 610 570H570C487 570 420 503 420 420V320Z" fill="#1B5E65"/>
  <path d="M760 350H818C860 350 894 384 894 426C894 468 860 502 818 502H782" stroke="#1B5E65" stroke-width="28" stroke-linecap="round"/>
  <path d="M500 260C472 220 484 182 512 150" stroke="#D06C4B" stroke-width="18" stroke-linecap="round"/>
  <path d="M610 240C582 200 594 162 622 130" stroke="#D06C4B" stroke-width="18" stroke-linecap="round"/>
  <path d="M720 260C692 220 704 182 732 150" stroke="#D06C4B" stroke-width="18" stroke-linecap="round"/>
  <text x="140" y="182" fill="#223042" font-family="Georgia, serif" font-size="72">Quiet Cafes, Long Drafts</text>
</svg>
